<svg xmlns="http://www.w3.org/2000/svg" xmlns:xlink="http://www.w3.org/1999/xlink" viewBox="0 0 64 64" id="cloud-data">
  <defs>
    <linearGradient id="b" x1="14.95" x2="46.81" y1="41.68" y2="9.82" gradientUnits="userSpaceOnUse">
      <stop offset="0" stop-color="#54a5ff"></stop>
      <stop offset="1" stop-color="#8ad3fe"></stop>
    </linearGradient>
    <linearGradient id="a" x1="32" x2="32" y1="60" y2="48" gradientUnits="userSpaceOnUse">
      <stop offset="0" stop-color="#d3e6f5"></stop>
      <stop offset="1" stop-color="#f0f7fc"></stop>
    </linearGradient>
    <linearGradient xlink:href="#a" id="d" y1="48" y2="36"></linearGradient>
    <linearGradient xlink:href="#a" id="e" y1="36" y2="24"></linearGradient>
    <linearGradient id="c" x1="17" x2="21" y1="54" y2="54" gradientUnits="userSpaceOnUse">
      <stop offset="0" stop-color="#fe9661"></stop>
      <stop offset="1" stop-color="#ffb369"></stop>
    </linearGradient>
    <linearGradient xlink:href="#b" id="f" x1="23" x2="27" y1="54" y2="54"></linearGradient>
    <linearGradient xlink:href="#c" id="g" y1="30" y2="30"></linearGradient>
    <linearGradient xlink:href="#b" id="h" x1="23" x2="27" y1="30" y2="30"></linearGradient>
    <linearGradient xlink:href="#c" id="i" y1="42" y2="42"></linearGradient>
    <linearGradient xlink:href="#b" id="j" x1="23" x2="27" y1="42" y2="42"></linearGradient>
  </defs>
  <g>
    <path fill="url(#b)" d="M59.83 24.14a7 7 0 0 0-5-3.09 11 11 0 0 0-.66-2.41A11.93 11.93 0 0 0 43 11a12.21 12.21 0 0 0-3.81.62 16 16 0 0 0-30.1 5.89 8.77 8.77 0 0 0-1.68.75l-.12.07a9.1 9.1 0 0 0-3 3 .54.54 0 0 0-.07.13A9 9 0 0 0 12 35h42a7 7 0 0 0 5.17-2.3A6.91 6.91 0 0 0 61 28a6.83 6.83 0 0 0-1.17-3.86Z"></path>
    <rect width="38" height="12" x="13" y="48" fill="url(#a)" rx="3" ry="3"></rect>
    <rect width="38" height="12" x="13" y="36" fill="url(#d)" rx="3" ry="3"></rect>
    <rect width="38" height="12" x="13" y="24" fill="url(#e)" rx="3" ry="3"></rect>
    <circle cx="19" cy="54" r="2" fill="url(#c)"></circle>
    <circle cx="25" cy="54" r="2" fill="url(#f)"></circle>
    <path fill="url(#g)" d="M19 32a2 2 0 1 1 2-2 2 2 0 0 1-2 2Zm0-2Z"></path>
    <path fill="url(#h)" d="M25 32a2 2 0 1 1 2-2 2 2 0 0 1-2 2Zm0-2Z"></path>
    <circle cx="19" cy="42" r="2" fill="url(#i)"></circle>
    <circle cx="25" cy="42" r="2" fill="url(#j)"></circle>
  </g>
</svg>
