<svg xmlns="http://www.w3.org/2000/svg" viewBox="0 0 64 64" id="web-optimization">
  <path fill="#edeff0" d="M61 10.96a2 2 0 0 0-2-2H5a2 2 0 0 0-2 2v7.089h58V10.96Z"></path>
  <path fill="#95c8ec" d="M3 18.049V53.04a2 2 0 0 0 2 2h54a2 2 0 0 0 2-2V18.049H3zm53.743-5.544H36.367a1 1 0 0 0 0 2h20.376a1 1 0 0 0 0-2z"></path>
  <circle cx="7.26" cy="13.505" r=".995" fill="#95c8ec"></circle>
  <circle cx="12.38" cy="13.511" r=".995" fill="#95c8ec"></circle>
  <circle cx="17.5" cy="13.507" r=".995" fill="#95c8ec"></circle>
  <path fill="#546f7a" d="M46 38.203v-3.316h-3.362a10.712 10.712 0 0 0-1.942-4.692l2.377-2.377-2.345-2.345-2.377 2.377a10.689 10.689 0 0 0-4.692-1.942v-3.362h-3.316v3.362a10.712 10.712 0 0 0-4.692 1.942l-2.377-2.377-2.345 2.345 2.377 2.377a10.689 10.689 0 0 0-1.942 4.692h-3.362v3.316h3.362a10.712 10.712 0 0 0 1.942 4.692l-2.377 2.377 2.345 2.345 2.377-2.377a10.689 10.689 0 0 0 4.692 1.942v3.362h3.316v-3.362a10.712 10.712 0 0 0 4.692-1.942l2.377 2.377 2.345-2.345-2.377-2.377a10.689 10.689 0 0 0 1.942-4.692H46Z"></path>
  <circle cx="32" cy="36.545" r="5.943" fill="#edeff0"></circle>
</svg>
